<svg width="32" height="64" viewBox="0 0 32 64" fill="none" xmlns="http://www.w3.org/2000/svg">
<path fill-rule="evenodd" clip-rule="evenodd" d="M31.9684 1.184C32.0328 0.608 31.9684 0.672 31.7431 0.16C31.6787 0.064 31.5821 0 31.4533 0C31.0992 0 30.5197 0.448 30.1978 0.8C28.0087 3.232 25.3366 7.328 23.9201 7.808C23.2119 8.064 22.5358 6.816 22.0529 6.368C20.1213 4.48 17.6425 2.368 13.6183 1.12C11.4936 0.416 9.69075 -0.192 9.01469 0.128C7.75916 0.704 9.56198 1.856 10.2702 2.624C10.8175 3.2 11.4292 3.136 12.073 2.848C12.5559 2.656 13.1354 2.656 13.6183 2.848C17.2561 4.32 19.3165 5.728 21.4091 7.968C22.0851 8.736 22.5036 9.696 21.8598 10.304C19.7028 12.384 17.4493 14.592 15.3246 16.704C14.8417 17.184 14.2622 17.824 13.6505 17.792C13.2642 17.76 12.6525 17.344 12.2984 17.12C11.6867 16.704 11.1394 16.48 10.56 16.032C10.0449 15.648 9.9483 15.296 9.9161 14.656C9.88391 13.6 10.1415 12.704 10.3024 11.904C10.56 10.464 10.8819 9.024 11.1716 7.552C11.397 6.432 11.5258 4.992 11.4292 3.808C11.3326 3.52 10.8497 3.456 10.5278 3.68C10.399 4.288 10.399 4.288 10.2702 4.928C10.1415 5.6 10.0127 6.816 9.88391 7.488C9.49759 9.6 8.9825 11.2 8.62838 13.952C8.56399 14.368 8.46741 15.072 8.40302 15.584C8.33864 16.288 8.56399 17.152 8.33864 17.6C8.0489 18.24 7.79135 18.752 7.95232 19.616C8.08109 20.448 7.88793 20.672 7.37284 21.088C6.6324 21.696 4.99055 22.912 4.05695 23.456C3.54186 23.776 2.898 24.384 3.28431 25.024C3.63844 25.664 4.44327 25.792 5.15152 25.824C6.24608 25.888 7.63039 24.48 8.69276 24.256C9.11127 24.16 9.69075 24 10.0449 24.288C10.4956 24.608 10.5922 25.12 10.6887 25.632C11.1072 27.552 10.9785 28.544 10.8497 30.592C10.7531 31.808 10.4634 34.016 10.0449 35.168C9.72294 36.064 9.40101 36.448 8.66057 37.088C7.98451 37.664 7.17969 38.464 6.95433 39.872C6.85775 40.544 7.30846 42.144 6.60021 43.968C5.92415 45.696 5.82757 46.08 5.11932 47.712C4.7652 48.544 4.41107 49.568 4.02476 50.592C3.3487 52.384 3.25212 52.256 2.70484 54.08C2.4151 55.072 1.96439 56.512 1.67466 57.504C1.15957 59.136 1.35272 59.04 0.547895 60.704C0.322543 61.12 -0.289126 62.432 0.161578 63.264C0.354737 63.616 0.869827 64 1.25614 64C1.28834 64 1.32053 64 1.35272 64C2.15755 63.808 2.76922 63.52 3.15554 62.72C3.50967 61.984 3.31651 60.928 3.57405 60.16C4.15353 58.4 4.73301 56.608 5.50564 54.912C6.34266 53.088 6.24608 52.384 6.98653 50.464C7.79135 48.288 8.33864 46.944 9.49759 44.96C10.8819 42.624 14.4875 39.456 16.0328 38.336C18.4473 36.64 19.9604 35.52 19.6384 37.472C19.3809 39.136 16.5479 43.296 15.9362 44.672C15.6143 45.344 15.5821 46.048 15.8718 46.624C16.226 47.36 17.0308 48.352 17.8356 48.288C18.5761 48.256 19.2199 47.264 18.9946 46.56C18.7048 45.696 18.6726 45.056 19.735 43.008C21.0549 40.48 23.1475 36.864 22.7612 33.696C22.6324 32.544 21.2481 31.968 20.1213 32.352C18.8336 32.8 16.7089 34.496 15.3889 35.2C14.4875 35.68 13.8437 35.872 13.7471 34.912C13.6505 34.016 13.8437 32.96 13.9081 32.032C14.1978 28.736 14.0046 27.552 14.3266 24.64C14.4231 23.808 15.2602 22.688 15.9684 23.328C18.2219 25.312 21.1193 27.616 23.3728 29.408C24.3064 30.144 24.725 30.784 25.1757 32.096C25.401 32.736 25.2078 33.696 24.9825 34.592C24.8859 35.008 25.0791 35.616 25.9805 35.008C28.073 32.192 29.4895 27.616 29.4895 24.064C29.5217 20.928 29.8759 17.536 26.4956 12.032C25.9483 11.136 24.6606 9.152 25.9161 7.84C27.6867 5.92 31.1958 2.688 31.9684 1.184ZM27.7189 20.48C27.8155 21.696 27.8477 22.624 27.8477 23.84C27.8477 24.64 27.5579 25.632 27.397 26.72C27.3004 27.456 27.236 28.512 26.8819 29.568C26.8175 29.728 26.6243 30.208 26.2702 30.208C25.8839 30.24 25.7551 29.728 25.562 29.504C24.8859 28.736 24.3386 28 23.5982 27.392C22.8899 26.848 21.6988 26.016 20.9262 25.536C20.2179 25.056 19.4775 24.256 18.7692 23.744C18.0288 23.2 17.3527 22.688 16.6767 22.048C16.4835 21.888 16.2582 21.6 16.1616 21.408C16.0006 21.024 16.0006 20.544 16.1294 20.192C16.2903 19.648 16.6445 19.168 16.9664 18.688C17.3849 18.08 17.8356 17.504 18.3185 16.96C18.6083 16.64 19.0912 16.192 19.4453 15.968C19.9926 15.648 20.2179 15.552 20.6686 15.104C21.1193 14.688 21.0871 14.272 21.5378 13.824C21.9885 13.376 22.5358 12.512 23.0831 12.128C23.3085 11.968 23.6948 11.808 23.9523 11.936C24.3064 12.064 24.6606 12.512 24.8537 12.832C26.3346 15.456 27.4936 17.632 27.7189 20.48Z" fill="#1F4766"/>
</svg>
